<?xml version="1.0" encoding="UTF-8"?>
<svg id="Layer_1" data-name="Layer 1" xmlns="http://www.w3.org/2000/svg" xmlns:xlink="http://www.w3.org/1999/xlink" viewBox="0 0 170 170">
  <defs>
    <style>
      .cls-1 {
        fill: url(#linear-gradient);
      }
    </style>
    <linearGradient id="linear-gradient" x1="26.47" y1="85" x2="143.53" y2="85" gradientUnits="userSpaceOnUse">
      <stop offset="0" stop-color="#00968a"/>
      <stop offset="1" stop-color="#283575"/>
    </linearGradient>
  </defs>
  <path class="cls-1" d="m113.21,121.08c1,.42,1.72.69,2.41,1.02,3.48,1.67,5.49,5.38,4.96,9.11-.52,3.65-3.38,6.72-6.95,7.45-3.74.77-7.55-.96-9.46-4.28-1.9-3.3-1.69-7.75,1.25-10.19,2.22-1.85,2.96-3.94,3.36-6.5.19-1.24.66-2.44,1.06-3.88-7.84.48-15.05-1-21.88-4.49-2.15-1.10-4.54-1.89-6.91-2.35-11.85-2.31-21.45-8.02-28.38-18.05-.46-.66-1.6-1.05-2.48-1.20-3.29-.54-6.77-.42-9.87-1.46-11.01-3.67-16.2-14.17-12.86-25.68,3.33-11.46,11.25-18.88,21.78-23.74,12.08-5.57,24.85-6.63,37.87-4.94,14.27,1.85,27.32,6.81,38.43,16.20,7.63,6.45,13.52,14.18,16.45,23.88,4.46,14.82-.92,28.24-14.41,35.81-2.61,1.46-5.37,2.81-8.22,3.65-2.74.80-4.20,2.39-4.89,4.97-.42,1.55-.83,3.10-1.26,4.68Zm8.21-15.96c11.76-3.70,19.15-16.13,16.51-28.52-2.46-11.56-9.37-20.19-18.64-26.96-14.91-10.89-31.88-14.59-50.04-12.97-9.73.87-18.93,3.75-26.60,10.13-7.06,5.87-11.77,13.03-10.85,22.74.77,8.17,10.35,14.85,18.01,12.66-1.35-13.67,3.50-21.53,16.61-26.15,3.93-1.39,8.13-2.33,12.28-2.72,13.88-1.31,26.76,1.50,37.58,10.81,8.07,6.94,12.47,15.74,10.43,26.52-.95,5.03-3.51,9.76-5.28,14.46Zm-27.94,1.17c6.34,2.35,12.12,3.14,18.08,2,.73-.14,1.58-.71,1.97-1.33,2.04-3.28,4.09-6.57,5.87-10,2.17-4.19,3.25-8.64,2.53-13.44-.99-6.66-4.39-11.89-9.50-16.02-11.15-9.01-24.03-10.82-37.74-8.53-6.19,1.04-11.95,3.26-16.43,7.94-3.99,4.17-5.09,10.35-2.71,15.01.47-.09,1-.10,1.47-.28,6.16-2.37,12.33-4.70,18.46-7.16,7-2.80,14.11-4.91,21.78-4.43,9.75.61,15.94,6.79,15.01,15.55-.31,2.89-1.45,5.85-2.86,8.44-3.31,6.08-8.73,9.76-15.93,12.24Zm-35.68-19.01c.05.08.22.46.47.78,6.28,7.73,14.33,12.56,24.18,13.91,10.16,1.39,19.81-3.79,23.57-12.13,3.54-7.87-.11-13.98-8.70-14.65-5.42-.42-10.65.50-15.65,2.44-7.97,3.09-15.84,6.40-23.86,9.66Zm54.27,39.05c-2.12-.12-3.81,1.40-3.90,3.51-.09,2.18,1.40,3.79,3.55,3.85,2.02.06,3.64-1.39,3.79-3.38.16-2.09-1.37-3.87-3.44-3.99Z"/>
</svg>
